<mxfile host="65bd71144e">
    <diagram id="RlWe495j_DQlxG0aJYm0" name="Страница 1">
        <mxGraphModel dx="650" dy="378" grid="1" gridSize="10" guides="1" tooltips="1" connect="1" arrows="1" fold="1" page="1" pageScale="1" pageWidth="827" pageHeight="1169" math="0" shadow="0">
            <root>
                <mxCell id="0"/>
                <mxCell id="1" parent="0"/>
                <mxCell id="2" value="" style="edgeStyle=orthogonalEdgeStyle;rounded=0;orthogonalLoop=1;jettySize=auto;html=1;" edge="1" parent="1" source="3" target="5">
                    <mxGeometry relative="1" as="geometry"/>
                </mxCell>
                <mxCell id="3" value="Начало" style="rounded=1;whiteSpace=wrap;html=1;" vertex="1" parent="1">
                    <mxGeometry x="330" y="10" width="120" height="60" as="geometry"/>
                </mxCell>
                <mxCell id="4" value="" style="edgeStyle=orthogonalEdgeStyle;rounded=0;orthogonalLoop=1;jettySize=auto;html=1;" edge="1" parent="1" source="5">
                    <mxGeometry relative="1" as="geometry">
                        <mxPoint x="390" y="210" as="targetPoint"/>
                    </mxGeometry>
                </mxCell>
                <mxCell id="5" value="&amp;nbsp;string[] myArray1&amp;nbsp;&lt;br&gt;string[] myArray2&lt;br&gt;int count = 0" style="shape=parallelogram;perimeter=parallelogramPerimeter;whiteSpace=wrap;html=1;fixedSize=1;" vertex="1" parent="1">
                    <mxGeometry x="305" y="110" width="170" height="60" as="geometry"/>
                </mxCell>
                <mxCell id="6" value="" style="edgeStyle=orthogonalEdgeStyle;rounded=0;orthogonalLoop=1;jettySize=auto;html=1;" edge="1" parent="1" target="9">
                    <mxGeometry relative="1" as="geometry">
                        <mxPoint x="390" y="290" as="sourcePoint"/>
                    </mxGeometry>
                </mxCell>
                <mxCell id="7" style="edgeStyle=none;html=1;entryX=1;entryY=0.5;entryDx=0;entryDy=0;" edge="1" parent="1" target="14">
                    <mxGeometry relative="1" as="geometry">
                        <mxPoint x="525" y="413" as="targetPoint"/>
                        <mxPoint x="450" y="250" as="sourcePoint"/>
                        <Array as="points">
                            <mxPoint x="518" y="250"/>
                            <mxPoint x="518" y="580"/>
                        </Array>
                    </mxGeometry>
                </mxCell>
                <mxCell id="8" value="yes" style="edgeStyle=none;html=1;" edge="1" parent="1" source="9" target="11">
                    <mxGeometry relative="1" as="geometry"/>
                </mxCell>
                <mxCell id="9" value="if (myArray1[i].length &amp;lt;= 3)" style="rhombus;whiteSpace=wrap;html=1;" vertex="1" parent="1">
                    <mxGeometry x="277.5" y="350" width="225" height="80" as="geometry"/>
                </mxCell>
                <mxCell id="10" style="edgeStyle=none;html=1;" edge="1" parent="1">
                    <mxGeometry relative="1" as="geometry">
                        <mxPoint x="329" y="252" as="targetPoint"/>
                        <mxPoint x="301" y="495" as="sourcePoint"/>
                        <Array as="points">
                            <mxPoint x="217" y="495"/>
                            <mxPoint x="217" y="364"/>
                            <mxPoint x="217" y="252"/>
                        </Array>
                    </mxGeometry>
                </mxCell>
                <mxCell id="11" value="myArray2[count] = myArray1[i]&lt;br&gt;count++;" style="whiteSpace=wrap;html=1;" vertex="1" parent="1">
                    <mxGeometry x="301.25" y="470" width="177.5" height="50" as="geometry"/>
                </mxCell>
                <mxCell id="12" value="" style="endArrow=classic;html=1;rounded=0;exitX=0;exitY=0.5;exitDx=0;exitDy=0;entryX=0;entryY=0.5;entryDx=0;entryDy=0;" edge="1" parent="1" source="9">
                    <mxGeometry width="50" height="50" relative="1" as="geometry">
                        <mxPoint x="510" y="260" as="sourcePoint"/>
                        <mxPoint x="330" y="250" as="targetPoint"/>
                        <Array as="points">
                            <mxPoint x="280" y="250"/>
                            <mxPoint x="310" y="250"/>
                        </Array>
                    </mxGeometry>
                </mxCell>
                <mxCell id="13" value="No" style="text;html=1;align=center;verticalAlign=middle;resizable=0;points=[];autosize=1;strokeColor=none;fillColor=none;" vertex="1" parent="1">
                    <mxGeometry x="275" y="350" width="30" height="20" as="geometry"/>
                </mxCell>
                <mxCell id="14" value="Конец" style="rounded=1;whiteSpace=wrap;html=1;" vertex="1" parent="1">
                    <mxGeometry x="330" y="550" width="120" height="60" as="geometry"/>
                </mxCell>
                <mxCell id="15" value="&lt;span&gt;for (int i = 0;&lt;/span&gt;&lt;br&gt;&lt;span&gt;i &amp;lt; myArray1.length;&lt;/span&gt;&lt;br&gt;&lt;span&gt;i++)&lt;/span&gt;" style="rhombus;whiteSpace=wrap;html=1;" vertex="1" parent="1">
                    <mxGeometry x="281.5" y="196" width="217" height="112" as="geometry"/>
                </mxCell>
            </root>
        </mxGraphModel>
    </diagram>
</mxfile>